<mxfile host="app.diagrams.net" agent="Mozilla/5.0 (Windows NT 10.0; Win64; x64) AppleWebKit/537.36 (KHTML, like Gecko) Chrome/126.0.0.0 Safari/537.36" version="24.7.5">
  <diagram name="Page-1" id="GwG6b0UsznqhS38lxQlB">
    <mxGraphModel dx="2600" dy="942" grid="1" gridSize="10" guides="1" tooltips="1" connect="1" arrows="1" fold="1" page="1" pageScale="1" pageWidth="850" pageHeight="1100" math="0" shadow="0">
      <root>
        <mxCell id="0" />
        <mxCell id="1" parent="0" />
        <mxCell id="GLhwcfPF0TWPQaRxllQG-1" value="" style="edgeStyle=orthogonalEdgeStyle;rounded=0;orthogonalLoop=1;jettySize=auto;html=1;" edge="1" parent="1" source="GLhwcfPF0TWPQaRxllQG-2" target="GLhwcfPF0TWPQaRxllQG-9">
          <mxGeometry relative="1" as="geometry" />
        </mxCell>
        <mxCell id="GLhwcfPF0TWPQaRxllQG-2" value="Training Data" style="shape=parallelogram;perimeter=parallelogramPerimeter;whiteSpace=wrap;html=1;fixedSize=1;" vertex="1" parent="1">
          <mxGeometry x="-798" y="240" width="150" height="60" as="geometry" />
        </mxCell>
        <mxCell id="GLhwcfPF0TWPQaRxllQG-3" value="" style="edgeStyle=orthogonalEdgeStyle;rounded=0;orthogonalLoop=1;jettySize=auto;html=1;" edge="1" parent="1" source="GLhwcfPF0TWPQaRxllQG-4" target="GLhwcfPF0TWPQaRxllQG-7">
          <mxGeometry relative="1" as="geometry" />
        </mxCell>
        <mxCell id="GLhwcfPF0TWPQaRxllQG-4" value="Mulai" style="fixedSize=1;html=1;shape=mxgraph.flowchart.terminator;whiteSpace=wrap;" vertex="1" parent="1">
          <mxGeometry x="-778" y="20" width="110" height="63" as="geometry" />
        </mxCell>
        <mxCell id="GLhwcfPF0TWPQaRxllQG-5" value="Selesai" style="fixedSize=1;html=1;shape=mxgraph.flowchart.terminator;whiteSpace=wrap;" vertex="1" parent="1">
          <mxGeometry x="-508" y="700" width="110" height="63" as="geometry" />
        </mxCell>
        <mxCell id="GLhwcfPF0TWPQaRxllQG-6" style="edgeStyle=orthogonalEdgeStyle;rounded=0;orthogonalLoop=1;jettySize=auto;html=1;" edge="1" parent="1" source="GLhwcfPF0TWPQaRxllQG-7" target="GLhwcfPF0TWPQaRxllQG-2">
          <mxGeometry relative="1" as="geometry" />
        </mxCell>
        <mxCell id="GLhwcfPF0TWPQaRxllQG-7" value="Load Dataset" style="rounded=0;whiteSpace=wrap;html=1;" vertex="1" parent="1">
          <mxGeometry x="-783" y="130" width="120" height="60" as="geometry" />
        </mxCell>
        <mxCell id="GLhwcfPF0TWPQaRxllQG-8" value="" style="edgeStyle=orthogonalEdgeStyle;rounded=0;orthogonalLoop=1;jettySize=auto;html=1;" edge="1" parent="1" source="GLhwcfPF0TWPQaRxllQG-9" target="GLhwcfPF0TWPQaRxllQG-23">
          <mxGeometry relative="1" as="geometry" />
        </mxCell>
        <mxCell id="GLhwcfPF0TWPQaRxllQG-9" value="Testing Data" style="shape=parallelogram;perimeter=parallelogramPerimeter;whiteSpace=wrap;html=1;fixedSize=1;" vertex="1" parent="1">
          <mxGeometry x="-798" y="360" width="150" height="60" as="geometry" />
        </mxCell>
        <mxCell id="GLhwcfPF0TWPQaRxllQG-10" style="edgeStyle=orthogonalEdgeStyle;rounded=0;orthogonalLoop=1;jettySize=auto;html=1;" edge="1" parent="1" source="GLhwcfPF0TWPQaRxllQG-11" target="GLhwcfPF0TWPQaRxllQG-13">
          <mxGeometry relative="1" as="geometry" />
        </mxCell>
        <mxCell id="GLhwcfPF0TWPQaRxllQG-11" value="&lt;font style=&quot;font-size: 14px;&quot;&gt;Hasil data&amp;nbsp;&lt;/font&gt;&lt;div style=&quot;font-size: 14px;&quot;&gt;&lt;font style=&quot;font-size: 14px;&quot;&gt;preprocessing&lt;/font&gt;&lt;/div&gt;" style="shape=parallelogram;perimeter=parallelogramPerimeter;whiteSpace=wrap;html=1;fixedSize=1;" vertex="1" parent="1">
          <mxGeometry x="-798" y="590" width="150" height="60" as="geometry" />
        </mxCell>
        <mxCell id="GLhwcfPF0TWPQaRxllQG-12" style="edgeStyle=orthogonalEdgeStyle;rounded=0;orthogonalLoop=1;jettySize=auto;html=1;entryX=0.5;entryY=0;entryDx=0;entryDy=0;" edge="1" parent="1" source="GLhwcfPF0TWPQaRxllQG-13" target="GLhwcfPF0TWPQaRxllQG-15">
          <mxGeometry relative="1" as="geometry">
            <Array as="points">
              <mxPoint x="-595" y="740" />
              <mxPoint x="-595" y="30" />
              <mxPoint x="-453" y="30" />
            </Array>
          </mxGeometry>
        </mxCell>
        <mxCell id="GLhwcfPF0TWPQaRxllQG-13" value="Balancing Data Training" style="rounded=0;whiteSpace=wrap;html=1;" vertex="1" parent="1">
          <mxGeometry x="-783" y="700" width="120" height="60" as="geometry" />
        </mxCell>
        <mxCell id="GLhwcfPF0TWPQaRxllQG-14" value="" style="edgeStyle=orthogonalEdgeStyle;rounded=0;orthogonalLoop=1;jettySize=auto;html=1;" edge="1" parent="1" source="GLhwcfPF0TWPQaRxllQG-15" target="GLhwcfPF0TWPQaRxllQG-17">
          <mxGeometry relative="1" as="geometry" />
        </mxCell>
        <mxCell id="GLhwcfPF0TWPQaRxllQG-15" value="Balanced&amp;nbsp;&lt;div&gt;Training Data&lt;/div&gt;" style="shape=parallelogram;perimeter=parallelogramPerimeter;whiteSpace=wrap;html=1;fixedSize=1;" vertex="1" parent="1">
          <mxGeometry x="-528" y="70" width="150" height="60" as="geometry" />
        </mxCell>
        <mxCell id="GLhwcfPF0TWPQaRxllQG-16" value="" style="edgeStyle=orthogonalEdgeStyle;rounded=0;orthogonalLoop=1;jettySize=auto;html=1;" edge="1" parent="1" source="GLhwcfPF0TWPQaRxllQG-17" target="GLhwcfPF0TWPQaRxllQG-19">
          <mxGeometry relative="1" as="geometry" />
        </mxCell>
        <mxCell id="GLhwcfPF0TWPQaRxllQG-17" value="Mendefinisikan Hyperparameter&amp;nbsp;&lt;div&gt;(training arguments)&lt;/div&gt;" style="whiteSpace=wrap;html=1;rounded=0;" vertex="1" parent="1">
          <mxGeometry x="-513" y="190" width="120" height="70" as="geometry" />
        </mxCell>
        <mxCell id="GLhwcfPF0TWPQaRxllQG-18" value="" style="edgeStyle=orthogonalEdgeStyle;rounded=0;orthogonalLoop=1;jettySize=auto;html=1;" edge="1" parent="1" source="GLhwcfPF0TWPQaRxllQG-19" target="GLhwcfPF0TWPQaRxllQG-21">
          <mxGeometry relative="1" as="geometry" />
        </mxCell>
        <mxCell id="GLhwcfPF0TWPQaRxllQG-19" value="Pelatihan Model dengan Data Training" style="whiteSpace=wrap;html=1;rounded=0;" vertex="1" parent="1">
          <mxGeometry x="-513" y="320" width="120" height="70" as="geometry" />
        </mxCell>
        <mxCell id="GLhwcfPF0TWPQaRxllQG-20" value="" style="edgeStyle=orthogonalEdgeStyle;rounded=0;orthogonalLoop=1;jettySize=auto;html=1;" edge="1" parent="1" target="GLhwcfPF0TWPQaRxllQG-25">
          <mxGeometry relative="1" as="geometry">
            <mxPoint x="-453" y="509" as="sourcePoint" />
          </mxGeometry>
        </mxCell>
        <mxCell id="GLhwcfPF0TWPQaRxllQG-21" value="Evalusi Model dengan Data Testing" style="whiteSpace=wrap;html=1;rounded=0;" vertex="1" parent="1">
          <mxGeometry x="-513" y="450" width="120" height="70" as="geometry" />
        </mxCell>
        <mxCell id="GLhwcfPF0TWPQaRxllQG-22" value="" style="edgeStyle=orthogonalEdgeStyle;rounded=0;orthogonalLoop=1;jettySize=auto;html=1;" edge="1" parent="1" source="GLhwcfPF0TWPQaRxllQG-23" target="GLhwcfPF0TWPQaRxllQG-11">
          <mxGeometry relative="1" as="geometry" />
        </mxCell>
        <mxCell id="GLhwcfPF0TWPQaRxllQG-23" value="Data Preprocessing" style="shape=process;whiteSpace=wrap;html=1;backgroundOutline=1;" vertex="1" parent="1">
          <mxGeometry x="-783" y="470" width="120" height="60" as="geometry" />
        </mxCell>
        <mxCell id="GLhwcfPF0TWPQaRxllQG-24" value="" style="edgeStyle=orthogonalEdgeStyle;rounded=0;orthogonalLoop=1;jettySize=auto;html=1;" edge="1" parent="1" source="GLhwcfPF0TWPQaRxllQG-25" target="GLhwcfPF0TWPQaRxllQG-5">
          <mxGeometry relative="1" as="geometry" />
        </mxCell>
        <mxCell id="GLhwcfPF0TWPQaRxllQG-25" value="Hasil" style="shape=parallelogram;perimeter=parallelogramPerimeter;whiteSpace=wrap;html=1;fixedSize=1;rounded=0;" vertex="1" parent="1">
          <mxGeometry x="-513" y="580" width="120" height="60" as="geometry" />
        </mxCell>
      </root>
    </mxGraphModel>
  </diagram>
</mxfile>
